<svg xmlns="http://www.w3.org/2000/svg" viewBox="0 0 200 200" role="img" aria-labelledby="t d">
  <title id="t">Río</title>
  <desc id="d">Personaje con sombrero llanero y camisa magenta, con pasto y atardecer al fondo (Orinoquía).</desc>
  <defs>
    <linearGradient id="bg" x1="0" y1="0" x2="0" y2="1">
      <stop offset="0" stop-color="#ffc9df"/>
      <stop offset="1" stop-color="#fff1f7"/>
    </linearGradient>
    <clipPath id="c"><circle cx="100" cy="100" r="100"/></clipPath>
  </defs>
  <g clip-path="url(#c)">
    <rect width="200" height="200" fill="url(#bg)"/>
    <circle cx="152" cy="118" r="22" fill="#ffd166" opacity=".9"/>
    <path d="M0 132 Q60 120 120 130 T200 128 L200 200 L0 200 Z" fill="#8ed6a3"/>
    <g stroke="#4fae76" stroke-width="3" stroke-linecap="round">
      <path d="M14 156 L10 138"/><path d="M26 160 L24 142"/><path d="M170 158 L176 140"/><path d="M184 162 L190 146"/><path d="M42 168 L38 150"/>
    </g>
    <!-- camisa -->
    <path d="M18 200 C22 160 58 142 100 142 C142 142 178 160 182 200 Z" fill="#c4306f"/>
    <path d="M84 142 L100 168 L116 142 Z" fill="#a8245b"/>
    <path d="M100 168 L100 200" stroke="#a8245b" stroke-width="3"/>
    <circle cx="100" cy="178" r="2.6" fill="#fff"/><circle cx="100" cy="190" r="2.6" fill="#fff"/>
    <!-- cuello y cabeza -->
    <rect x="88" y="118" width="24" height="26" rx="8" fill="#b57e58"/>
    <circle cx="62" cy="92" r="8" fill="#c58f66"/>
    <circle cx="138" cy="92" r="8" fill="#c58f66"/>
    <ellipse cx="100" cy="90" rx="37" ry="40" fill="#cf9770"/>
    <!-- cabello -->
    <path d="M63 84 C60 60 140 60 137 84 C132 74 122 70 112 70 C104 76 84 78 70 74 C66 76 64 80 63 84 Z" fill="#1c1526"/>
    <!-- sombrero llanero -->
    <ellipse cx="100" cy="66" rx="62" ry="13" fill="#e9d3a2"/>
    <path d="M66 64 C66 34 134 34 134 64 Z" fill="#f2e2ba"/>
    <path d="M66 62 C90 68 110 68 134 62 L134 56 C110 62 90 62 66 56 Z" fill="#202765"/>
    <ellipse cx="100" cy="66" rx="62" ry="13" fill="none" stroke="#c9ae74" stroke-width="2"/>
    <!-- rostro -->
    <path d="M78 82 Q86 78 94 82" stroke="#1c1526" stroke-width="3" stroke-linecap="round" fill="none"/>
    <path d="M106 82 Q114 78 122 82" stroke="#1c1526" stroke-width="3" stroke-linecap="round" fill="none"/>
    <circle cx="86" cy="94" r="4.2" fill="#140f1c"/><circle cx="114" cy="94" r="4.2" fill="#140f1c"/>
    <circle cx="87.4" cy="92.6" r="1.3" fill="#fff"/><circle cx="115.4" cy="92.6" r="1.3" fill="#fff"/>
    <path d="M100 96 Q96 106 101 107" stroke="#a5704b" stroke-width="2.4" stroke-linecap="round" fill="none"/>
    <path d="M87 111 Q100 121 113 111" stroke="#7b2f3a" stroke-width="3.4" stroke-linecap="round" fill="none"/>
    <circle cx="76" cy="107" r="6" fill="#d74886" opacity=".25"/><circle cx="124" cy="107" r="6" fill="#d74886" opacity=".25"/>
  </g>
</svg>
